<svg width="24" height="24" viewBox="0 0 24 24" fill="none" xmlns="http://www.w3.org/2000/svg">
<path d="M19.619 2C20.934 2 22 3.06599 22 4.38095V15.8095C22 17.1245 20.934 18.1905 19.619 18.1905L18.1904 18.1904L18.1905 19.619C18.1905 20.8742 17.2192 21.9026 15.9872 21.9935L15.8095 22H4.38095C3.06599 22 2 20.934 2 19.619V8.19047C2 6.87551 3.06599 5.80952 4.38095 5.80952L5.80868 5.80868L5.80952 4.38095C5.80952 3.12576 6.78081 2.09742 8.01278 2.00653L8.19047 2H19.619ZM4.38095 6.7619C3.59197 6.7619 2.95238 7.4015 2.95238 8.19047V19.619C2.95238 20.408 3.59197 21.0476 4.38095 21.0476H15.8095C16.5985 21.0476 17.2381 20.408 17.2381 19.619V8.19047C17.2381 8.00676 17.2034 7.83114 17.1402 7.66981C17.1183 7.61321 17.0926 7.55804 17.0636 7.50491C16.8447 7.10643 16.442 6.82354 15.9699 6.7708L15.9496 6.76899L15.8095 6.7619H4.38095ZM16.1618 5.83543C16.307 5.85696 16.4478 5.89154 16.5831 5.93793C16.6081 5.94658 16.6331 5.95565 16.6579 5.96512C16.8398 6.03455 17.0089 6.12436 17.1644 6.23216C17.1905 6.25044 17.2167 6.26936 17.2424 6.28878C17.4964 6.48095 17.7084 6.71979 17.8676 6.99285C17.9755 7.17739 18.0592 7.37839 18.1143 7.59091C18.164 7.78259 18.1905 7.98358 18.1905 8.19047V17.2381H19.619C20.3616 17.2381 20.9719 16.6715 21.0411 15.9471L21.0476 15.8095V4.38095C21.0476 3.59197 20.408 2.95238 19.619 2.95238H8.19047C7.4015 2.95238 6.7619 3.59197 6.7619 4.38095V5.80952H15.8095C15.8693 5.80952 15.9285 5.81173 15.9872 5.81605L16.1618 5.83543Z" fill="#0A66C2"/>
<path d="M10.4127 17.7143C10.5004 17.7143 10.5714 17.6433 10.5714 17.5556V14.3809H13.746C13.8337 14.3809 13.9048 14.3099 13.9048 14.2222V13.5873C13.9048 13.4996 13.8337 13.4286 13.746 13.4286H10.5714V10.254C10.5714 10.1663 10.5004 10.0952 10.4127 10.0952H9.77778C9.69008 10.0952 9.61905 10.1663 9.61905 10.254V13.4286H6.44444C6.35675 13.4286 6.28571 13.4996 6.28571 13.5873V14.2222C6.28571 14.3099 6.35675 14.3809 6.44444 14.3809H9.61905V17.5556C9.61905 17.6433 9.69008 17.7143 9.77778 17.7143H10.4127Z" fill="#0A66C2"/>
</svg>
