<svg width="24" height="24" viewBox="0 0 24 24" fill="none" xmlns="http://www.w3.org/2000/svg">
<path fill-rule="evenodd" clip-rule="evenodd" d="M14.4225 3.41729C15.0873 3.1418 15.8 3 16.5197 3C17.2393 3 17.952 3.1418 18.6169 3.41729C19.2817 3.69275 19.8857 4.09648 20.3944 4.60542C20.9034 5.11417 21.3073 5.71834 21.5827 6.38315C21.8582 7.04802 22 7.76065 22 8.48034C22 9.20003 21.8582 9.91266 21.5827 10.5775C21.3072 11.2424 20.9035 11.8464 20.3945 12.3552C20.3945 12.3552 20.3945 12.3552 20.3945 12.3552L12.3226 20.4271C12.1443 20.6054 11.8552 20.6054 11.6769 20.4271L3.60501 12.3552C2.57734 11.3275 2 9.93369 2 8.48034C2 7.02699 2.57734 5.63317 3.60501 4.6055C4.63268 3.57783 6.0265 3.00049 7.47985 3.00049C8.9332 3.00049 10.327 3.57783 11.3547 4.6055L11.9998 5.25056L12.6447 4.60558C12.6448 4.60555 12.6447 4.6056 12.6447 4.60558C13.1535 4.0966 13.7576 3.69276 14.4225 3.41729ZM16.5197 3.91311C15.9199 3.91311 15.3261 4.03127 14.772 4.26085C14.2179 4.49042 13.7145 4.82691 13.2906 5.25109L12.3226 6.21907C12.1443 6.39736 11.8552 6.39736 11.6769 6.21907L10.709 5.25117C9.85259 4.39474 8.69103 3.9136 7.47985 3.9136C6.26868 3.9136 5.10711 4.39474 4.25068 5.25117C3.39425 6.1076 2.91311 7.26917 2.91311 8.48034C2.91311 9.69151 3.39425 10.8531 4.25068 11.7095L11.9998 19.4586L19.7488 11.7095C20.173 11.2855 20.5096 10.7821 20.7391 10.228C20.9687 9.67394 21.0869 9.08008 21.0869 8.48034C21.0869 7.8806 20.9687 7.28674 20.7391 6.73268C20.5096 6.17862 20.1731 5.67522 19.7489 5.25124C19.3249 4.82706 18.8214 4.49042 18.2673 4.26085C17.7133 4.03127 17.1194 3.91311 16.5197 3.91311Z" fill="#0A66C2"/>
</svg>
