<svg width="44" height="44" viewBox="0 0 44 44" fill="none" xmlns="http://www.w3.org/2000/svg">
<path d="M39.9075 37.9939C38.5902 35.7499 36.5765 34.0022 34.0564 33.2591C32.9209 32.9234 31.6844 32.9166 30.5099 33.0258C29.0673 33.1607 27.8982 33.7284 26.5782 34.2544C23.9045 35.3168 20.9456 35.4183 18.2056 34.5416C16.8829 34.1168 15.7003 33.4223 14.3089 33.2052C13.441 33.091 12.5651 33.0509 11.6904 33.0852C8.42948 33.1337 5.70462 35.2671 4.10176 37.9939C3.66131 38.7437 4.82507 39.4234 5.26552 38.6749C6.62458 36.3622 8.90226 34.4755 11.6904 34.4337C12.477 34.4216 13.2892 34.396 14.0664 34.5241C15.315 34.7291 16.3886 35.3413 17.5685 35.7499C20.0871 36.6117 22.8021 36.719 25.3807 36.0587C26.5337 35.762 27.5493 35.2159 28.6565 34.8059C29.6909 34.4229 30.7496 34.3393 31.842 34.3218C34.7851 34.2773 37.3065 36.2273 38.7424 38.6749C39.1815 39.422 40.3466 38.745 39.9061 37.9939" fill="#1D1D1B"/>
<path d="M4.43592 21.9923L8.5185 23.0387C8.74344 23.0967 9.03303 22.8742 8.93336 22.6247L7.16348 18.2379C7.13979 18.1813 7.10392 18.1307 7.05842 18.0896L7.44229 10.976L13.6382 12.1789C13.7729 12.8343 13.8982 13.4856 13.9884 14.1464C14.0223 14.5376 14.1821 14.9071 14.4437 15.1996C11.3242 20.521 12.6199 28.8712 18.6677 31.5643C19.9052 32.1134 21.2607 32.3425 22.6097 32.2306C23.9587 32.1187 25.258 31.6693 26.3884 30.9237C28.8627 29.2906 30.4467 26.5194 30.9302 23.6227C31.5525 19.898 30.5558 15.9292 27.8915 13.193C27.8318 13.1267 27.7583 13.0743 27.6761 13.0396C27.594 13.0049 27.5052 12.9886 27.4161 12.9921C27.4282 12.8059 27.415 12.619 27.377 12.4364C27.2235 11.6597 27.3582 10.8182 27.3945 10.0279C27.3959 10.0176 27.3959 10.0072 27.3945 9.99692L28.3374 9.51009L33.3951 6.90335C33.7184 6.73613 33.5298 6.30459 33.2254 6.27492L21.2875 5.12326C20.6275 5.05988 19.9244 4.9021 19.2671 5.08685C19.2393 5.09479 19.2126 5.10611 19.1876 5.12056V5.12056L8.59932 9.65843L7.09748 10.3071C6.88197 10.3988 6.89274 10.7117 7.05168 10.8586L6.66376 18.0545C6.62086 18.0809 6.58374 18.1158 6.55466 18.157L4.23523 21.4974C4.19798 21.5449 4.17773 21.6035 4.17773 21.6639C4.17773 21.7243 4.19798 21.7829 4.23523 21.8304C4.25568 21.8711 4.2849 21.9067 4.32077 21.9347C4.35664 21.9627 4.39827 21.9824 4.44266 21.9923H4.43592ZM8.05515 22.2229L5.07707 21.4609L6.76074 19.0336C7.18997 20.0971 7.61919 21.1616 8.04842 22.2269L8.05515 22.2229ZM28.4667 16.2313L25.3337 18.6452C25.1303 18.8016 25.3337 19.1536 25.5371 18.9944L28.6485 16.59C28.7415 16.7788 28.8317 16.9703 28.9179 17.1645L26.0651 19.3626C25.8617 19.519 26.0651 19.8697 26.2698 19.7119L29.0701 17.5542C30.5396 21.4771 29.7126 26.3198 26.5109 29.1436C24.7222 30.7228 22.2559 31.3391 19.9621 30.627C17.5848 29.8853 15.7866 27.8477 14.8841 25.5754C14.2678 24.0065 14.0131 22.3185 14.1391 20.6373C14.265 18.9562 14.7683 17.3251 15.6115 15.8658C15.6196 15.8523 15.625 15.8402 15.6317 15.8281C16.9194 16.2488 18.1909 16.7181 19.4732 17.1604C19.9069 17.3101 20.3621 17.5313 20.8201 17.565C21.5421 17.6162 22.0404 17.3425 22.6021 16.9689C23.8602 16.1301 25.1088 15.2765 26.3735 14.4539C26.5484 14.3442 26.7126 14.2182 26.8638 14.0776C26.8831 14.1051 26.9047 14.1308 26.9285 14.1545C27.53 14.7751 28.0439 15.4752 28.4559 16.2353L28.4667 16.2313ZM26.6564 11.0839C26.6296 11.0873 26.6036 11.0956 26.5796 11.1081L24.0662 12.4836C23.8373 12.6091 24.042 12.9583 24.2696 12.8329L26.6375 11.5383C26.6375 11.6192 26.6308 11.7015 26.6281 11.7824C26.6271 11.9012 26.6361 12.0198 26.6551 12.1371L24.5 13.3157C24.2723 13.4398 24.4757 13.789 24.7047 13.665L26.7251 12.5592C26.7527 12.7122 26.7591 12.8683 26.744 13.0231C26.6901 13.4492 26.3951 13.634 26.0705 13.843C24.9525 14.5779 23.8426 15.3264 22.7287 16.0694C22.4001 16.2879 22.0701 16.5671 21.7158 16.7437C21.103 17.0512 20.5898 16.8408 20.016 16.6426L16.0533 15.2576C15.8741 15.1956 15.695 15.1322 15.5145 15.0715C15.3943 14.9543 15.2392 14.8795 15.0727 14.8584C14.881 14.7113 14.7501 14.4986 14.705 14.261L16.747 14.7249C17.0002 14.7816 17.1079 14.3918 16.8534 14.3339L14.6323 13.8308V13.7958C14.6121 13.6178 14.5838 13.4411 14.5514 13.2631L16.9409 13.8025C17.1941 13.8605 17.3019 13.4708 17.0487 13.4128L14.4679 12.8275C14.4329 12.6563 14.3952 12.4863 14.3575 12.3164L19.1782 13.2537C19.5823 13.3319 20.1803 13.5746 20.5952 13.4937C21.01 13.4128 21.4801 13.0446 21.8492 12.8545L26.7049 10.3489C26.6928 10.5903 26.6793 10.8317 26.6672 11.0731L26.6564 11.0839ZM19.4543 5.73685C19.9715 5.58986 20.5548 5.72741 21.0801 5.77866L24.2104 6.07938L31.5269 6.78467L32.0536 6.83592L22.2304 11.9011C21.6714 12.1897 20.971 12.4405 20.4632 12.81C20.2786 12.7304 19.9796 12.7277 19.7964 12.6927L12.9876 11.3684L8.79866 10.5593L17.6885 9.12845L18.8401 8.9437C19.2779 9.80003 21.406 9.32669 21.4249 8.33551C21.4374 8.27744 21.4327 8.21698 21.4114 8.16154C21.0424 7.15822 18.8522 7.54256 18.766 8.54858L9.38728 10.0522L18.0225 6.35179L19.4584 5.73685H19.4543ZM19.9419 8.32607C20.047 8.2937 20.6154 8.17233 20.7379 8.31258C20.6881 8.4798 20.3716 8.58229 20.2382 8.62545C20.1049 8.6686 19.5082 8.79132 19.4449 8.63354C19.4031 8.52835 19.8611 8.35034 19.9419 8.32607Z" fill="#1D1D1B"/>
</svg>
