<svg width="24" height="24" viewBox="0 0 24 24" fill="none" xmlns="http://www.w3.org/2000/svg">
<path fill-rule="evenodd" clip-rule="evenodd" d="M21.8605 2.13949C21.9899 2.26884 22.0337 2.46085 21.9733 2.63351L15.3066 21.6811C15.2421 21.8654 15.0716 21.9916 14.8765 21.9996C14.6815 22.0076 14.5013 21.8956 14.422 21.7172L10.6869 13.3131L2.28279 9.57801C2.10437 9.49872 1.99244 9.31854 2.0004 9.12345C2.00836 8.92837 2.1346 8.75791 2.31888 8.69341L21.3665 2.02675C21.5391 1.96632 21.7312 2.01013 21.8605 2.13949ZM11.6156 13.0578L14.8045 20.2328L20.385 4.28843L11.6156 13.0578ZM19.7116 3.615L3.76718 9.19553L10.9422 12.3844L19.7116 3.615Z" fill="black"/>
</svg>
