<svg width="44" height="44" viewBox="0 0 44 44" fill="none" xmlns="http://www.w3.org/2000/svg">
<path d="M29.6028 32.2699V30.2778C30.0492 30.3897 30.4664 30.5959 30.826 30.8825C30.8563 30.9109 30.8967 30.9262 30.9383 30.925C30.9799 30.9239 31.0194 30.9064 31.0482 30.8764C31.0549 30.8688 31.0611 30.8607 31.0665 30.852C31.1888 30.6793 31.3122 30.5075 31.4355 30.3347C31.4548 30.2996 31.4599 30.2584 31.4497 30.2196C31.4394 30.1808 31.4147 30.1475 31.3805 30.1264C30.8637 29.721 30.2525 29.4525 29.6038 29.3458V28.6598C29.6033 28.6195 29.587 28.581 29.5584 28.5526C29.5299 28.5241 29.4913 28.5079 29.4509 28.5073H28.9677C28.9273 28.5079 28.8888 28.5241 28.8602 28.5526C28.8316 28.581 28.8154 28.6195 28.8148 28.6598V29.3133C27.7313 29.4383 26.715 30.1264 26.8312 31.346C26.9332 32.4132 27.9168 32.7841 28.8148 33.0362V35.1959C28.277 35.0891 27.7712 34.8599 27.3368 34.5262C27.3016 34.506 27.2598 34.5005 27.2206 34.5108C27.1813 34.5211 27.1476 34.5463 27.1268 34.581L26.769 35.1167C26.7493 35.1518 26.7439 35.1931 26.754 35.2321C26.764 35.2711 26.7888 35.3047 26.8231 35.326C27.4061 35.7609 28.0952 36.0322 28.8189 36.1117V36.942C28.8186 36.9609 28.8221 36.9796 28.8293 36.9971C28.8365 37.0146 28.8472 37.0304 28.8607 37.0437V37.0487C28.8739 37.0624 28.8897 37.0731 28.9073 37.0803C28.9248 37.0874 28.9437 37.0909 28.9626 37.0904H29.4417C29.4821 37.0899 29.5207 37.0736 29.5492 37.0452C29.5778 37.0167 29.5941 36.9782 29.5946 36.9379V36.1127C30.7077 35.9582 31.7117 35.2193 31.6088 33.9783C31.5252 32.8766 30.5181 32.5402 29.6028 32.2699ZM29.6028 35.2V33.2689L29.6772 33.2943C30.198 33.4854 30.7689 33.7598 30.6068 34.4337C30.4967 34.9083 30.0441 35.1258 29.6028 35.2ZM28.7333 32.0178C28.2552 31.8684 27.7415 31.6214 27.821 31.0258C27.8913 30.5055 28.351 30.289 28.8179 30.227V32.0422L28.7333 32.0178Z" fill="#1D1D1B"/>
<path d="M36.1825 31.7132C36.1743 31.6303 36.1464 31.5507 36.101 31.4808C36.0556 31.411 35.9941 31.353 35.9216 31.3117C35.6363 30.2321 35.0973 29.2357 34.3491 28.405C33.6009 27.5744 32.6651 26.9333 31.619 26.5349C28.8852 25.4982 25.658 26.3712 23.811 28.6245C21.964 30.8777 21.6898 34.1128 23.1994 36.6181C23.9478 37.8471 25.0561 38.8178 26.375 39.3994C27.6938 39.9809 29.1598 40.1453 30.5752 39.8704C33.2132 39.3541 35.2376 37.3143 35.9165 34.8161C36.101 34.4909 36.1397 34.0162 36.1723 33.7215C36.2497 33.0544 36.2531 32.3809 36.1825 31.7132V31.7132ZM31.2215 38.6355C30.07 39.0422 28.8217 39.0903 27.6421 38.7736C26.4625 38.4569 25.4073 37.7902 24.6163 36.862C22.9966 34.9533 22.7927 32.135 24.0781 29.9986C25.3441 27.8927 27.8771 26.7463 30.3021 27.2168C31.6574 27.4886 32.8779 28.2167 33.7588 29.279C34.6398 30.3413 35.1277 31.6733 35.1408 33.0517C35.1354 33.4514 35.0911 33.8497 35.0083 34.2408C34.8095 34.3577 34.7749 34.6006 34.8584 34.809C34.5893 35.6833 34.1209 36.4836 33.4899 37.1474C32.859 37.8113 32.0826 38.3206 31.2215 38.6355V38.6355Z" fill="#1D1D1B"/>
<path d="M5.1582 12.554V35.7827C5.1582 36.4362 6.17753 36.4372 6.17753 35.7827V12.554C6.17753 11.9005 5.1582 11.8995 5.1582 12.554Z" fill="#1D1D1B"/>
<path d="M20.95 12.1745C20.74 11.586 20.1345 11.21 19.5678 10.961C18.4006 10.4457 17.1153 10.2282 15.8544 10.0849C14.1925 9.8981 12.5159 9.8804 10.8505 10.032C9.55391 10.1489 8.21962 10.337 6.99745 10.8045C6.29819 11.0718 5.39507 11.4814 5.19222 12.2812C4.99345 13.0628 5.6713 13.6604 6.29105 13.9907C7.35319 14.5558 8.59269 14.7896 9.77409 14.9522C11.3767 15.1686 12.9966 15.2278 14.6108 15.129C16.1398 15.0386 17.7452 14.8556 19.1865 14.3028C19.4674 14.198 19.74 14.0723 20.002 13.9267V16.5784C19.9959 16.7288 19.685 16.9636 19.4587 17.0916C18.9684 17.3691 18.4159 17.5327 17.8726 17.6699C16.3151 18.0622 14.6893 18.1781 13.0879 18.1781C11.4866 18.1781 9.86073 18.0582 8.3032 17.6699C7.76806 17.5514 7.25018 17.3656 6.76198 17.117C6.59983 17.0379 6.45039 16.9351 6.31858 16.8121C6.25142 16.7505 6.20242 16.6718 6.17689 16.5845C6.14733 15.933 5.128 15.9299 5.15756 16.5845C5.19426 17.3975 5.93939 17.8783 6.6152 18.1771C7.78335 18.6924 9.06871 18.9099 10.3296 19.0532C11.9616 19.2366 13.6078 19.257 15.2438 19.1142C16.5689 19.0003 17.9379 18.8092 19.1865 18.3336C19.4674 18.2288 19.74 18.1031 20.002 17.9575V20.4039C19.9959 20.5543 19.685 20.7891 19.4587 20.9121C18.9684 21.1895 18.4159 21.3532 17.8726 21.4904C16.3151 21.8827 14.6893 21.9986 13.0879 21.9986C11.4866 21.9986 9.86073 21.8776 8.3032 21.4904C7.76654 21.3716 7.24726 21.1852 6.7579 20.9355C6.59575 20.8563 6.44631 20.7536 6.3145 20.6306C6.24734 20.569 6.19834 20.4902 6.17281 20.4029C6.14325 19.7514 5.12393 19.7484 5.15349 20.4029C5.19018 21.216 5.93531 21.6967 6.61112 21.9955C7.77927 22.5108 9.06464 22.7273 10.3255 22.8716C11.9575 23.055 13.6037 23.0754 15.2397 22.9326C16.5648 22.8188 17.9338 22.6277 19.1825 22.152C19.4634 22.0473 19.7359 21.9216 19.9979 21.776V24.2315C19.9918 24.3819 19.6809 24.6157 19.4546 24.7397C18.9643 25.0171 18.4118 25.1808 17.8685 25.318C16.311 25.7113 14.6852 25.8261 13.0838 25.8261C11.4825 25.8261 9.85665 25.7062 8.29912 25.318C7.76228 25.1998 7.24292 25.0133 6.75383 24.763C6.59125 24.6846 6.4417 24.5818 6.31042 24.4581C6.24342 24.3968 6.19443 24.3185 6.16873 24.2315C6.13917 23.58 5.11985 23.5759 5.14941 24.2315C5.18611 25.0446 5.93123 25.5253 6.60704 25.8241C7.77519 26.3394 9.06056 26.5559 10.3215 26.7002C11.9534 26.8838 13.5997 26.9039 15.2356 26.7602C16.5607 26.6463 17.9297 26.4553 19.1784 25.9806C19.4593 25.8759 19.7319 25.7502 19.9938 25.6046V28.0499C19.9877 28.2003 19.6768 28.4351 19.4505 28.5632C18.9602 28.8406 18.4078 29.0043 17.8645 29.1415C16.3069 29.5348 14.6811 29.6496 13.0798 29.6496C11.4784 29.6496 9.85257 29.5297 8.29505 29.1415C7.75675 29.0214 7.23607 28.8332 6.74567 28.5815C6.58309 28.503 6.43355 28.4002 6.30227 28.2766C6.23511 28.215 6.18611 28.1362 6.16058 28.0489C6.13102 27.3984 5.1117 27.3944 5.14126 28.0489C5.17795 28.862 5.92308 29.3437 6.59889 29.6415C7.76704 30.1578 9.0524 30.3743 10.3133 30.5176C11.9452 30.701 13.5915 30.7214 15.2275 30.5786C16.5526 30.4648 17.9215 30.2737 19.1702 29.799C19.4513 29.6944 19.7239 29.5683 19.9857 29.422V31.8541C19.9796 32.0045 19.6687 32.2393 19.4424 32.3674C18.9521 32.6448 18.3996 32.8085 17.8563 32.9457C16.2988 33.338 14.673 33.4538 13.0716 33.4538C11.4702 33.4538 9.84442 33.3339 8.28689 32.9457C7.75163 32.8266 7.23374 32.6401 6.74567 32.3907C6.58352 32.3116 6.43408 32.2088 6.30227 32.0858C6.24038 32.0212 6.19708 31.9412 6.17689 31.8541C6.14733 31.2026 5.128 31.1996 5.15756 31.8541C5.19426 32.6672 5.93939 33.1479 6.6152 33.4467C7.78335 33.962 9.06871 34.1795 10.3296 34.3228C11.9616 34.5062 13.6078 34.5266 15.2438 34.3838C16.5689 34.27 17.9379 34.0789 19.1865 33.6032C19.4674 33.4985 19.74 33.3728 20.002 33.2272V35.6736C19.9959 35.824 19.685 36.0588 19.4587 36.1868C18.9684 36.4643 18.4159 36.6279 17.8726 36.7651C16.3151 37.1574 14.6893 37.2733 13.0879 37.2733C11.4866 37.2733 9.86073 37.1523 8.3032 36.7651C7.76654 36.6464 7.24726 36.4599 6.7579 36.2102C6.59575 36.131 6.44631 36.0283 6.3145 35.9053C6.24734 35.8437 6.19834 35.765 6.17281 35.6776C6.14325 35.0261 5.12393 35.0231 5.15349 35.6776C5.19018 36.4907 5.93531 36.9714 6.61112 37.2702C7.77927 37.7855 9.06464 38.002 10.3255 38.1463C11.9575 38.3297 13.6037 38.3501 15.2397 38.2073C16.5648 38.0935 17.9338 37.9024 19.1825 37.4268C19.9337 37.1391 20.8878 36.6818 21.0081 35.8006C21.0171 35.7602 21.0215 35.719 21.0213 35.6776V12.4418C21.0236 12.3478 20.9988 12.255 20.95 12.1745V12.1745ZM19.7268 12.9002C19.4098 13.1451 19.0132 13.2976 18.633 13.4236C17.5719 13.7834 16.4456 13.9592 15.3314 14.0588C12.8545 14.2814 10.1849 14.2357 7.78844 13.5009C7.29203 13.3494 6.43886 13.0943 6.19728 12.638C6.13917 12.5302 6.17791 12.4713 6.31756 12.326C6.54181 12.0922 6.87717 11.9438 7.17073 11.8178C9.38674 10.9031 12.0696 10.8583 14.4253 10.9803C15.7606 11.0494 17.1112 11.209 18.3935 11.6023C18.8236 11.7344 19.9857 12.1176 20.005 12.5495C20.005 12.6278 19.8756 12.7864 19.7278 12.9002H19.7268Z" fill="#1D1D1B"/>
<path d="M9.42838 36.0978C8.5854 35.9555 7.72815 35.7766 6.94021 35.4341C6.52127 35.2522 5.84342 34.9422 5.81386 34.4177C5.80367 34.2226 5.49787 34.2216 5.50806 34.4177C5.53762 34.9564 6.01059 35.304 6.45094 35.5357C7.33775 36.0124 8.36319 36.2258 9.34684 36.3915C9.53949 36.4281 9.62206 36.1303 9.42838 36.0978Z" fill="#1D1D1B"/>
<path d="M9.42838 35.5538C8.58133 35.4115 7.72815 35.2326 6.94021 34.8901C6.52127 34.7082 5.84342 34.3982 5.81386 33.8738C5.80367 33.6786 5.49787 33.6776 5.50806 33.8738C5.53762 34.4135 6.01059 34.76 6.45094 34.9918C7.33775 35.4684 8.36319 35.6819 9.34684 35.8486C9.53949 35.8811 9.62206 35.5874 9.42838 35.5538Z" fill="#1D1D1B"/>
<path d="M9.42838 34.9866C8.5854 34.8433 7.72815 34.6644 6.94021 34.323C6.52127 34.14 5.84342 33.83 5.81386 33.3015C5.80367 33.1064 5.49787 33.1054 5.50806 33.3015C5.53762 33.8412 6.01059 34.1878 6.45094 34.4246C7.33775 34.9013 8.36319 35.1137 9.34684 35.2804C9.53949 35.3098 9.62206 35.0192 9.42838 34.9866Z" fill="#1D1D1B"/>
<path d="M32.1186 6.33683C31.9422 5.69449 31.297 5.29202 30.7058 5.03082C29.5376 4.51451 28.2543 4.29803 26.9914 4.15472C25.3299 3.96793 23.6536 3.95022 21.9885 4.10187C20.6919 4.21774 19.3566 4.40678 18.1345 4.8743C17.4352 5.14058 16.5321 5.55119 16.3282 6.35004C16.3109 6.41896 16.3007 6.48945 16.2976 6.56042V6.60006C16.2966 6.61563 16.2966 6.63125 16.2976 6.64681V8.4549C16.2976 9.10943 17.317 9.11045 17.317 8.4549V7.99653C17.3547 8.01889 17.3924 8.04023 17.4301 8.05954C18.4922 8.62565 19.7328 8.85941 20.9131 9.02101C22.516 9.23821 24.1363 9.29778 25.7509 9.19887C27.2798 9.10841 28.8853 8.92547 30.3256 8.37258C30.6226 8.26059 30.91 8.12463 31.1849 7.96604V10.4571C31.1602 10.5158 31.1463 10.5785 31.1441 10.6421C31.1135 10.7408 31.0551 10.8286 30.9759 10.8952C30.8116 11.0389 30.6268 11.1574 30.4275 11.2468C29.7904 11.566 29.0698 11.7377 28.3746 11.877C26.4104 12.2723 24.3666 12.317 22.3728 12.1819C21.7184 12.1361 21.7215 13.1535 22.3728 13.1982C24.6428 13.3557 26.9985 13.2785 29.2166 12.7327C29.7731 12.5965 30.5631 12.3892 31.1849 12.0213V14.2776C31.1602 14.3366 31.1464 14.3996 31.1441 14.4636C31.1137 14.562 31.0553 14.6496 30.9759 14.7156C30.8119 14.8597 30.627 14.9782 30.4275 15.0673C29.7904 15.3864 29.0698 15.5582 28.3746 15.6984C26.4124 16.0938 24.3707 16.1385 22.3779 16.0033C21.7235 15.9586 21.7266 16.975 22.3779 17.0197C24.6459 17.1772 26.9995 17.1 29.2166 16.5542C29.7731 16.418 30.5631 16.2097 31.1849 15.8428V18.1011C31.1602 18.1598 31.1463 18.2224 31.1441 18.2861C31.1137 18.3851 31.0553 18.4733 30.9759 18.5401C30.8119 18.6842 30.627 18.8028 30.4275 18.8918C29.7904 19.2109 29.0698 19.3827 28.3746 19.523C26.4104 19.9183 24.3666 19.963 22.3728 19.8279C21.7184 19.7821 21.7215 20.7985 22.3728 20.8442C24.6428 21.0017 26.9985 20.9245 29.2166 20.3787C29.7731 20.2415 30.5631 20.0342 31.1849 19.6673V20.086C30.9667 20.4153 30.4948 20.6308 30.1757 20.769C29.3888 21.1115 28.5316 21.2904 27.6886 21.4327C27.4949 21.4662 27.5765 21.7599 27.7701 21.7274C28.7538 21.5607 29.7792 21.3473 30.666 20.8706C30.8515 20.7749 31.0255 20.6587 31.1849 20.5241V20.6542C30.9667 20.9835 30.4948 21.1989 30.1757 21.3371C29.3888 21.6797 28.5316 21.8585 27.6886 22.0008C27.4949 22.0333 27.5765 22.3271 27.7701 22.2945C28.7538 22.1279 29.7792 21.9154 30.666 21.4388C30.8515 21.3427 31.0256 21.2261 31.1849 21.0912V21.1928C30.9667 21.5221 30.4948 21.7376 30.1757 21.8758C29.3888 22.2183 28.5316 22.3962 27.6886 22.5395C27.4949 22.572 27.5765 22.8657 27.7701 22.8332C28.7538 22.6665 29.7792 22.4541 30.666 21.9774C30.8515 21.8814 31.0256 21.7648 31.1849 21.6299V21.9205C31.1602 21.9792 31.1463 22.0419 31.1441 22.1055C31.1137 22.2043 31.0553 22.2922 30.9759 22.3586C30.8116 22.5023 30.6268 22.6208 30.4275 22.7102C29.7904 23.0294 29.0698 23.2011 28.3746 23.3404C26.4124 23.7357 24.3707 23.7804 22.3779 23.6453C21.7235 23.5995 21.7266 24.6159 22.3779 24.6616C24.6459 24.8181 26.9995 24.7409 29.2166 24.1961C29.7731 24.0589 30.5631 23.8516 31.1849 23.4847V24.6382C31.1849 25.2918 32.2042 25.2928 32.2042 24.6382V6.62344C32.2065 6.52131 32.1766 6.42104 32.1186 6.33683V6.33683ZM30.8648 6.97001C30.5488 7.21394 30.1462 7.36741 29.7721 7.49343C28.71 7.85221 27.5836 8.02905 26.4705 8.12865C23.9925 8.35123 21.3229 8.3055 18.9275 7.57068C18.4321 7.41924 17.5789 7.16414 17.3374 6.7078C17.3272 6.69007 17.32 6.67086 17.3159 6.65088V6.62344C17.317 6.61398 17.317 6.60444 17.3159 6.59498C17.3447 6.51587 17.394 6.44575 17.4587 6.39171C17.6839 6.15795 18.0183 6.00956 18.3128 5.88354C20.5278 4.96882 23.2117 4.9241 25.5664 5.04606C26.9017 5.11517 28.2533 5.27474 29.5346 5.66807C29.9647 5.79918 31.1268 6.18336 31.1472 6.61531C31.14 6.69662 31.0136 6.85212 30.8648 6.97001V6.97001Z" fill="#1D1D1B"/>
<path d="M38.0182 25.6698L36.4617 26.6862C36.1886 26.865 36.4434 27.3051 36.7186 27.1252L38.2761 26.1089C38.5493 25.93 38.2935 25.4899 38.0182 25.6698Z" fill="#1D1D1B"/>
<path d="M33.3091 23.3372L33.254 25.193C33.2449 25.5203 33.7545 25.5203 33.7637 25.193L33.8187 23.3372C33.8279 23.012 33.3182 23.012 33.3091 23.3372Z" fill="#1D1D1B"/>
<path d="M38.8302 30.9894L37.0973 30.3003C36.7915 30.1793 36.66 30.6702 36.9617 30.7901L38.6946 31.4792C39.0004 31.6002 39.1309 31.1093 38.8302 30.9894Z" fill="#1D1D1B"/>
<path d="M32.1031 11.7947C32.7585 11.7947 32.7595 10.7783 32.1031 10.7783C31.4466 10.7783 31.4456 11.7947 32.1031 11.7947Z" fill="#1D1D1B"/>
<path d="M5.49272 25.1462C6.14814 25.1462 6.14916 24.1299 5.49272 24.1299C4.83627 24.1299 4.83525 25.1462 5.49272 25.1462Z" fill="#1D1D1B"/>
<path d="M20.813 28.9973C21.4695 28.9973 21.4705 27.981 20.813 27.981C20.1556 27.981 20.1566 28.9973 20.813 28.9973Z" fill="#1D1D1B"/>
</svg>
