<svg width="44" height="44" viewBox="0 0 44 44" fill="none" xmlns="http://www.w3.org/2000/svg">
<path d="M8.04482 25.9936C9.17154 24.1491 11.0654 22.6444 13.3725 22.6111C14.0246 22.6014 14.698 22.5809 15.3412 22.6831C16.3774 22.8466 17.2674 23.3349 18.2445 23.6608C20.3326 24.3481 22.5834 24.4337 24.7212 23.9071C25.6771 23.6705 26.5191 23.2349 27.437 22.9079C28.2946 22.6024 29.1723 22.5358 30.0779 22.5218C32.5178 22.4863 34.6082 24.0415 35.7986 25.9936C36.1627 26.5895 37.1286 26.0495 36.7634 25.4558C35.6713 23.6662 34.0019 22.2723 31.9126 21.6796C30.9712 21.4118 29.9461 21.4064 28.9724 21.4936C27.7753 21.6011 26.8072 22.0539 25.7128 22.4734C23.4958 23.3207 21.0425 23.4017 18.7705 22.7025C17.675 22.3637 16.6946 21.8098 15.541 21.6366C14.8225 21.5439 14.097 21.5101 13.3725 21.5355C10.669 21.5753 8.40997 23.2757 7.08113 25.4505C6.71598 26.0485 7.68078 26.5905 8.04482 25.9882" fill="#1D1D1B"/>
<path d="M18.9857 20.7544C22.1336 22.0451 25.5305 20.7276 27.4423 18.1291C29.5383 15.2789 29.7214 11.2747 28.0966 8.18356C26.6059 5.34737 23.4457 3.42968 20.1046 4.15352C16.1594 5.01395 13.9953 8.99344 13.9629 12.632C13.9908 15.935 15.696 19.4079 18.9879 20.7544H18.9857ZM19.362 5.5173C22.032 4.37831 24.9811 5.55602 26.5646 7.79421C26.8263 8.16552 27.0553 8.55732 27.2491 8.96547L24.5858 10.9391C24.4183 11.0638 24.5858 11.3446 24.7555 11.2176L27.3853 9.2677C27.4534 9.4258 27.516 9.59036 27.574 9.74954L25.1944 11.5134C25.0258 11.6382 25.1944 11.9189 25.363 11.792L27.6823 10.0711C28.3423 12.1899 28.1703 14.5636 27.1352 16.5362C25.8689 18.954 23.2156 20.7189 20.3335 20.0586C16.9109 19.2734 15.1075 15.7941 15.0851 12.632C15.1097 9.77535 16.5268 6.72728 19.3642 5.5173" fill="#1D1D1B"/>
<path d="M36.7557 29.009C36.5491 28.3938 36.2208 27.6452 35.6502 27.2613C35.0796 26.8773 34.4353 26.9741 33.7988 26.9924L30.9133 27.073L25.4215 27.2279C25.2753 27.1152 25.1634 26.9665 25.0976 26.7977C24.9999 26.5407 24.8235 26.3183 24.5918 26.1599C24.0011 25.7856 23.3333 26.1932 22.7805 25.7544C22.7721 25.748 22.7632 25.7422 22.7537 25.7372L22.7236 25.7114C22.5006 25.5535 22.231 25.4683 21.9542 25.4683C21.6774 25.4683 21.4078 25.5535 21.1848 25.7114C20.9056 25.8985 20.7225 26.0158 20.3518 25.9975C20.1095 25.9846 19.8928 25.9394 19.6505 26.0093C19.0844 26.1728 18.9805 26.5901 18.7181 27.0171C18.6209 27.1626 18.4858 27.2809 18.3261 27.3602C18.3037 27.3193 18.2702 27.285 18.229 27.2611C18.1879 27.2372 18.1408 27.2246 18.0927 27.2247L13.5646 27.0902L10.6222 27.0031C10.0795 26.987 9.44188 26.8956 8.92598 27.0945C7.61947 27.6087 7.18843 29.5876 7.25097 30.7858C7.31462 31.9549 7.86514 33.8661 9.28778 34.0845C9.75678 34.1554 10.266 34.0909 10.7395 34.0791L13.664 34.0049L17.9576 33.8973L16.497 38.2834C16.4859 38.3232 16.4845 38.365 16.4928 38.4055C16.5011 38.446 16.5189 38.4842 16.5449 38.517C16.5709 38.5498 16.6043 38.5765 16.6427 38.5949C16.681 38.6133 16.7233 38.623 16.7661 38.6232L18.0001 38.5372L18.8778 38.4748C18.937 38.4748 19.1435 38.4856 19.2619 38.4684C19.3088 38.5092 19.3736 38.5469 19.4115 38.5824L20.0492 39.1094L21.0329 39.9236C21.0678 39.956 21.1107 39.9792 21.1575 39.991C21.2044 40.0028 21.2536 40.0027 21.3004 39.9908C21.3472 39.979 21.3901 39.9556 21.4248 39.9231C21.4595 39.8906 21.4849 39.85 21.4986 39.8052C21.6996 39.2029 21.9002 38.6006 22.1005 37.9983L22.7202 39.8052C22.7341 39.85 22.7596 39.8906 22.7945 39.9231C22.8293 39.9555 22.8722 39.9788 22.9191 39.9907C22.966 40.0026 23.0153 40.0027 23.0622 39.9909C23.1091 39.9791 23.1521 39.956 23.187 39.9236C23.5019 39.664 23.8161 39.4041 24.1295 39.1438L24.7772 38.606C24.8319 38.5598 24.9 38.5146 24.9536 38.464C25.0684 38.4714 25.1836 38.4732 25.2986 38.4694L26.1641 38.5307L27.4538 38.6211C27.4967 38.6208 27.5389 38.6111 27.5773 38.5927C27.6156 38.5743 27.6491 38.5477 27.6751 38.5148C27.7011 38.482 27.7189 38.4439 27.7272 38.4034C27.7355 38.3629 27.734 38.3211 27.7229 38.2812C27.216 36.8163 26.7086 35.3514 26.2009 33.8866L29.7341 33.9791C31.3644 34.021 33.0093 34.1318 34.6396 34.107C36.0824 34.0855 36.7367 32.5228 36.9321 31.3461C37.0636 30.5655 37.0028 29.7661 36.7546 29.0122L36.7557 29.009ZM19.2898 27.0956C19.4584 26.7407 19.6315 26.4869 20.0916 26.4976C20.3149 26.503 20.5193 26.5697 20.7538 26.531C21.3981 26.4234 21.7387 25.7017 22.4366 26.1674C22.7716 26.4223 23.0865 26.5772 23.5332 26.5374C23.7331 26.5191 23.9073 26.4611 24.1116 26.5234C24.4578 26.631 24.5147 26.888 24.651 27.1591C24.8098 27.4847 25.0961 27.7364 25.4472 27.8592C26.2143 28.1722 25.8938 28.624 25.9787 29.2166C26.0457 29.6973 26.6375 30.0533 26.5292 30.5524C26.4287 31.0149 25.9709 31.2364 25.9642 31.7656C25.9642 31.9355 26.0267 32.1001 26.0245 32.27C26.0245 32.6454 25.7643 32.8304 25.4472 32.9605C25.2624 33.026 25.0938 33.1276 24.9519 33.2591C24.8101 33.3905 24.6981 33.5489 24.6231 33.7242C24.4846 34.0156 24.3763 34.2544 23.9988 34.3125C23.7822 34.3458 23.5812 34.2684 23.3634 34.2695C22.8163 34.2695 22.5818 34.7169 22.1038 34.8148C21.5913 34.9223 21.2619 34.3845 20.7917 34.2942C20.2033 34.177 19.7164 34.5416 19.3401 33.864C19.1268 33.4757 19.0196 33.2187 18.5796 33.01C18.3976 32.925 18.2156 32.896 18.0693 32.7411C17.8292 32.4862 17.904 32.2292 17.9331 31.9334C17.9777 31.4827 17.7756 31.2289 17.5433 30.8686C17.1157 30.2028 17.6852 30.0082 17.8783 29.4478C18.0872 28.8477 17.6237 28.2776 18.373 27.8969C18.8074 27.6753 19.0698 27.5592 19.2876 27.0999L19.2898 27.0956ZM9.93657 33.5618C9.8249 33.5618 9.71323 33.5736 9.59375 33.5704C8.72162 33.5521 8.30734 32.7002 8.05832 32.0033C7.77672 31.2153 7.728 30.3674 7.91762 29.5543C8.07619 28.8875 8.41454 27.9141 9.11134 27.6065C9.53903 27.4183 10.1677 27.528 10.6222 27.5409L13.2888 27.6194L17.6572 27.7495C17.5781 27.821 17.5124 27.905 17.4629 27.998C17.1804 28.5358 17.5389 29.0735 17.1492 29.5801C16.8443 29.9748 16.7025 30.4287 16.9158 30.9009C17.0341 31.1611 17.2664 31.3311 17.3435 31.6053C17.4205 31.8796 17.3077 32.1431 17.3379 32.4206C17.387 32.8713 17.6639 33.153 18.0347 33.3563L9.93657 33.5618V33.5618ZM19.196 38.3909C19.1737 38.3673 19.1681 38.3533 19.196 38.3909V38.3909ZM19.3077 38.4544C19.3166 38.4514 19.3249 38.4471 19.3323 38.4415C19.3255 38.448 19.317 38.4525 19.3077 38.4544V38.4544ZM21.7499 37.2713C21.5265 37.936 21.305 38.6003 21.0854 39.2642L20.3953 38.6931C20.1296 38.4727 19.7611 38.0155 19.4127 37.9123C19.0643 37.809 18.5115 37.9607 18.1597 37.9854L17.1547 38.0564L18.5394 33.9038C18.5394 33.893 18.5394 33.8833 18.5461 33.8737L18.7337 33.8683C18.7635 33.9183 18.7899 33.97 18.813 34.0232C18.9017 34.2578 19.0563 34.4641 19.2597 34.619C19.4596 34.7639 19.6999 34.8481 19.9498 34.861C20.2758 34.8782 20.5718 34.7373 20.8911 34.8954C20.9548 34.9266 21.0151 34.96 21.0731 34.9944C21.3211 35.7186 21.5693 36.442 21.818 37.1648C21.7898 37.1958 21.7691 37.2326 21.7577 37.2724L21.7499 37.2713ZM24.8844 38.4415C24.905 38.4547 24.9289 38.4625 24.9536 38.464C24.941 38.4661 24.9281 38.4651 24.916 38.4612C24.9039 38.4572 24.8931 38.4505 24.8844 38.4415ZM24.9581 38.463L24.9837 38.4382C25.1055 38.3016 25.0452 38.4458 24.9581 38.463ZM27.0608 38.0564L26.1127 37.9897C25.7475 37.9639 25.1624 37.8069 24.804 37.9134C24.469 38.0123 24.1183 38.4511 23.8626 38.6598L23.1278 39.2686C22.6812 37.9621 22.2326 36.6554 21.7822 35.3482C21.9384 35.3798 22.1001 35.3761 22.2546 35.3375C22.4969 35.2805 22.6622 35.1385 22.8621 35.0148C23.1636 34.8244 23.3992 34.8277 23.7353 34.8588C24.0097 34.889 24.287 34.8333 24.5261 34.7001C24.7651 34.5669 24.9534 34.3631 25.063 34.1189C25.1077 34.0264 25.1445 33.9403 25.187 33.8608L25.6091 33.8715L27.0608 38.0564ZM34.6162 33.5693C33.0863 33.5854 31.5453 33.4897 30.0166 33.4488L26.0167 33.3413C26.0167 33.3273 26.0077 33.3144 26.0021 33.3004C26.0468 33.2758 26.089 33.2473 26.1283 33.2154C26.575 32.8487 26.5694 32.4206 26.537 31.9087C26.4991 31.3096 27.1345 30.9676 27.1021 30.3394C27.0779 30.0655 26.9654 29.8057 26.7805 29.5962C26.5493 29.2972 26.5359 29.0585 26.5716 28.7003C26.5935 28.5278 26.5764 28.3527 26.5215 28.1871C26.4666 28.0215 26.3751 27.8693 26.2534 27.7409C29.0038 27.656 31.7564 27.5377 34.5067 27.5119C35.8467 27.4989 36.3548 29.1327 36.4341 30.2104C36.5145 31.3117 36.1092 33.551 34.6162 33.5661" fill="#1D1D1B"/>
<path d="M24.2861 32.2241C25.9544 30.2655 24.1264 27.2766 21.5436 27.7122C20.1477 27.9467 19.1874 29.1201 19.1494 30.4591C19.2231 32.9942 22.5642 34.2429 24.2861 32.2241V32.2241ZM22.0449 27.9886C22.3858 27.9818 22.7246 28.0405 23.0416 28.1614C23.3585 28.2823 23.6472 28.4629 23.8908 28.6926C24.1343 28.9224 24.3278 29.1966 24.4599 29.4993C24.592 29.802 24.6601 30.127 24.6601 30.4554C24.6601 30.7837 24.592 31.1088 24.4599 31.4114C24.3278 31.7141 24.1343 31.9884 23.8908 32.2181C23.6472 32.4479 23.3585 32.6285 23.0416 32.7493C22.7246 32.8702 22.3858 32.929 22.0449 32.9221C20.6201 32.9221 19.5235 31.7993 19.4844 30.4559C19.5235 29.1158 20.6201 27.9886 22.0449 27.9886Z" fill="#1D1D1B"/>
</svg>
