<svg width="44" height="44" viewBox="0 0 44 44" fill="none" xmlns="http://www.w3.org/2000/svg">
<path d="M20.9165 28.728L19.4854 30.1127C19.4545 30.1447 19.4377 30.1872 19.4385 30.231C19.4393 30.2749 19.4576 30.3167 19.4897 30.3477C19.5217 30.3787 19.5649 30.3965 19.6102 30.3973C19.6555 30.3981 19.6993 30.3818 19.7325 30.3519L21.1648 28.9673C21.1957 28.9352 21.2125 28.8927 21.2117 28.8489C21.2109 28.805 21.1925 28.7632 21.1605 28.7322C21.1285 28.7012 21.0853 28.6834 21.04 28.6826C20.9947 28.6819 20.9508 28.6981 20.9177 28.728H20.9165Z" fill="#1D1D1B"/>
<path d="M21.2573 29.5947L19.712 31.0922C19.6811 31.1243 19.6643 31.1667 19.6651 31.2106C19.6659 31.2544 19.6842 31.2963 19.7162 31.3273C19.7483 31.3583 19.7915 31.3761 19.8368 31.3769C19.8821 31.3776 19.9259 31.3613 19.959 31.3314L21.5044 29.834C21.5353 29.8019 21.5521 29.7595 21.5513 29.7156C21.5505 29.6717 21.5321 29.6299 21.5001 29.5989C21.4681 29.5679 21.4249 29.5501 21.3796 29.5493C21.3343 29.5486 21.2905 29.5648 21.2573 29.5947V29.5947Z" fill="#1D1D1B"/>
<path d="M21.7006 30.6704L20.0772 32.239C20.0463 32.271 20.0295 32.3135 20.0303 32.3573C20.0311 32.4012 20.0494 32.443 20.0815 32.474C20.1135 32.5051 20.1567 32.5228 20.202 32.5236C20.2473 32.5244 20.2911 32.5081 20.3243 32.4782L21.9477 30.9062C21.9786 30.8742 21.9954 30.8317 21.9946 30.7879C21.9938 30.744 21.9755 30.7022 21.9434 30.6712C21.9114 30.6401 21.8682 30.6224 21.8229 30.6216C21.7776 30.6208 21.7338 30.6371 21.7006 30.667V30.6704Z" fill="#1D1D1B"/>
<path d="M39.4249 8.10081H34.9088C34.9663 7.64266 35.0157 7.18413 35.0569 6.72522C35.1221 6.00752 35.1734 5.28531 35.1734 4.56423C35.1713 4.41522 35.1092 4.27289 35.0004 4.16752C34.8916 4.06214 34.7446 4.00204 34.5907 4H9.12961C8.97572 4.00204 8.82873 4.06214 8.71991 4.16752C8.61108 4.27289 8.54901 4.41522 8.5469 4.56423C8.55518 5.74719 8.64121 6.92843 8.80446 8.10081H4.57513C4.17422 8.10081 3.93997 8.45966 4.01339 8.81512C4.3085 10.1655 4.72858 11.4873 5.26855 12.7647C6.27315 15.2169 7.64602 17.6622 9.72281 19.4226C10.9255 20.4382 12.3474 21.1886 13.9184 21.4888C15.3129 23.1963 17.1118 24.5534 19.1628 25.4452V32.9268L15.2073 34.8452C15.1189 34.8942 15.0456 34.9651 14.9948 35.0505C14.944 35.136 14.9176 35.233 14.9183 35.3316V36.82H13.3741C13.2202 36.8221 13.0732 36.8822 12.9644 36.9875C12.8556 37.0929 12.7935 37.2352 12.7914 37.3842V39.4245C12.7935 39.5735 12.8556 39.7158 12.9644 39.8212C13.0732 39.9266 13.2202 39.9867 13.3741 39.9887L28.2613 40H30.3509C30.5048 39.998 30.6517 39.9379 30.7606 39.8325C30.8694 39.7271 30.9315 39.5848 30.9336 39.4358V37.3809C30.9315 37.2318 30.8694 37.0895 30.7606 36.9841C30.6517 36.8788 30.5048 36.8187 30.3509 36.8166H28.8113V35.3293C28.8113 35.231 28.7847 35.1344 28.7342 35.0491C28.6837 34.9638 28.6111 34.8927 28.5235 34.843L24.5669 32.9246V25.4395C26.6425 24.5368 28.3545 23.1725 29.7448 21.5215C29.8032 21.526 29.8619 21.5238 29.9197 21.5148C35.3459 20.5883 38.2245 14.9189 39.602 10.2866C39.7465 9.80026 39.8852 9.30938 39.9866 8.81286C40.06 8.4574 39.8258 8.10081 39.4249 8.10081ZM5.48299 9.85443C5.42239 9.64567 5.36645 9.4369 5.30701 9.22701H8.97228C9.04998 9.67839 9.13078 10.1298 9.21469 10.5812C9.84985 13.8604 10.9372 17.1589 12.8089 19.9846C8.77532 18.3889 6.59831 13.6901 5.48299 9.85443ZM23.004 25.7386C23.0062 25.767 23.0101 25.7952 23.0157 25.8232C23.0426 25.9176 23.0944 26.0035 23.166 26.0726L23.2826 26.1606C23.3195 26.1811 23.3586 26.1977 23.3991 26.2103V32.7147H20.3235V25.7047C21.2076 25.8722 22.1157 25.8837 23.004 25.7386ZM17.0673 36.8166H16.0791V35.6769L19.8748 33.8431H23.8466L27.6424 35.6769V36.8166H17.0673ZM15.4637 38.8614H13.9568V37.9473H15.064L15.0838 37.971L15.2003 38.0591C15.2893 38.1097 15.3908 38.1362 15.494 38.1358V38.1358C15.6464 38.1288 15.7919 38.0719 15.9066 37.9744L15.9264 37.9507H29.7682V38.8772L15.4637 38.8614ZM24.3209 24.3201C24.2248 24.3019 24.1255 24.309 24.0331 24.3404C22.666 24.7692 21.0473 24.8855 19.686 24.3404C19.5868 24.2966 19.4756 24.2851 19.3691 24.3077C17.5876 23.499 16.0238 22.3016 14.8006 20.8095C14.7894 20.7327 14.7575 20.6602 14.7079 20.5994C14.6584 20.5385 14.593 20.4915 14.5185 20.463C12.0257 17.3034 10.7286 13.0897 10.1226 9.14012C10.1622 9.11969 10.198 9.09299 10.2286 9.06113C10.283 9.01132 10.3232 8.94873 10.3452 8.87944C10.3825 8.81319 10.3999 8.73812 10.3953 8.66278L10.3743 8.5127C10.3477 8.41846 10.2963 8.33253 10.2251 8.26331L10.1086 8.17529C10.0672 8.15266 10.0235 8.13449 9.97804 8.12112C9.91278 7.60203 9.85839 7.09046 9.81488 6.58642C9.77293 6.10119 9.7368 5.61256 9.71815 5.11943H34.0033C33.9428 6.80122 33.7479 8.47595 33.4206 10.1286C32.733 13.7487 31.5163 17.397 29.2251 20.3795L29.2076 20.401C29.1003 20.4073 28.9972 20.4434 28.9104 20.5048C28.8237 20.5662 28.7569 20.6504 28.7181 20.7474C28.6807 20.8141 28.6634 20.8895 28.668 20.9652L28.6796 21.0476C27.4912 22.4328 26.0044 23.5498 24.3233 24.3201H24.3209ZM33.6362 18.4645C32.8193 19.198 31.8564 19.7624 30.8065 20.1234C31.5293 19.0528 32.1477 17.9194 32.6537 16.738C33.6933 14.3367 34.3599 11.7909 34.7515 9.21234C34.7899 9.2195 34.8289 9.22327 34.8681 9.22362H38.6953C38.433 10.2288 38.1056 11.217 37.7152 12.1824C36.8073 14.4879 35.5324 16.7809 33.6362 18.4645Z" fill="#1D1D1B"/>
<path d="M27.2344 12.2761L25.4024 11.9838L24.1763 11.7886C24.0618 11.758 23.9449 11.7369 23.8267 11.7254C23.7556 11.5561 23.5493 11.2074 23.5272 11.1612C23.3384 10.776 23.1504 10.3953 22.9631 10.0192L22.1671 8.4021C22.1476 8.37009 22.1216 8.34212 22.0909 8.3198C22.0601 8.29748 22.0252 8.28124 21.9879 8.27202C21.9507 8.2628 21.912 8.26077 21.8739 8.26605C21.8359 8.27133 21.7993 8.28382 21.7662 8.3028C21.7241 8.32723 21.6889 8.36134 21.6637 8.4021L20.0321 11.9116L16.5474 12.091C16.4907 12.0929 16.4357 12.1106 16.3891 12.1419C16.3424 12.1733 16.306 12.2169 16.2843 12.2677C16.2625 12.3185 16.2563 12.3743 16.2664 12.4284C16.2765 12.4825 16.3025 12.5327 16.3412 12.5729L19.0216 15.1063C18.7295 16.3039 18.4366 17.5046 18.1429 18.7083C18.1294 18.7621 18.1323 18.8185 18.1512 18.8707C18.1702 18.9228 18.2044 18.9686 18.2497 19.0023C18.295 19.036 18.3495 19.0562 18.4065 19.0605C18.4634 19.0648 18.5205 19.053 18.5706 19.0265L21.9119 17.2898L25.1751 19.0265C25.2261 19.0523 25.2837 19.0631 25.3409 19.0576C25.3982 19.0521 25.4525 19.0305 25.4972 18.9955C25.5419 18.9605 25.5751 18.9136 25.5926 18.8605C25.6101 18.8075 25.6112 18.7507 25.5958 18.697C25.3565 17.5129 25.1172 16.3288 24.8779 15.1446L27.3591 12.7421C27.5048 12.6045 27.4605 12.3066 27.2344 12.2761ZM23.8477 11.8089C23.8547 11.7999 23.8477 11.7705 23.8314 11.731C23.864 11.7378 23.8838 11.7593 23.8477 11.8089ZM24.6017 14.6199C24.4502 14.7666 24.294 14.8693 24.2835 15.0882C24.2742 15.2642 24.3593 15.4764 24.3931 15.6524C24.4809 16.0805 24.5675 16.5086 24.653 16.9366C24.7385 17.3647 24.8262 17.7991 24.9164 18.24L23.6146 17.5415L22.469 16.931C22.3233 16.8531 22.0949 16.6748 21.9154 16.6748C21.7359 16.6748 21.5052 16.8509 21.3513 16.931L20.1777 17.5415L18.8585 18.2264C18.9704 17.7705 19.0819 17.3143 19.193 16.8576C19.2955 16.4371 19.3985 16.0158 19.5018 15.5938C19.5438 15.4234 19.6685 15.1525 19.6312 14.9731C19.5939 14.7937 19.3526 14.6233 19.2163 14.4946L18.2746 13.6054L17.2257 12.6146L20.2022 12.4623C20.2575 12.4748 20.3155 12.4674 20.3655 12.4414C20.4155 12.4154 20.454 12.3727 20.4738 12.3212L21.9224 9.20669C22.1104 9.58736 22.2977 9.96802 22.4841 10.3487L23.0808 11.5629C23.1624 11.7288 23.2312 11.9748 23.3535 12.117C23.4759 12.2592 23.667 12.2705 23.8698 12.3032L25.0784 12.5018L26.5503 12.7275L25.4944 13.7499L24.6017 14.6199Z" fill="#1D1D1B"/>
</svg>
